<svg id="Layer_1" data-name="Layer 1" xmlns="http://www.w3.org/2000/svg" viewBox="0 0 900 900"><defs><style>.cls-1{fill:#fff;}.cls-2{fill:#464646;}</style></defs><path class="cls-1" d="M301.31,843.55a75,75,0,0,1-59.72-29.86L235.07,805a8.49,8.49,0,0,0-6.77-3.4H193.21a8.39,8.39,0,0,0-6,2.49l-2,2c-11.1,11.12-30.52,11.13-41.64,0l-2-2a29.23,29.23,0,0,1-8.65-20.84V750.42a8.43,8.43,0,0,0-4.68-7.59A29.29,29.29,0,0,1,112,716.49V683.64a29.26,29.26,0,0,1,8.62-20.82l16.2-16.19a22.66,22.66,0,0,0-3.45-34.88l-3.15-2.11A40.84,40.84,0,0,1,128.31,543l14-10.52a11.34,11.34,0,0,0,2.92-14.95,52,52,0,0,1,17.81-71.22,31.1,31.1,0,0,1,42,9.44,8.5,8.5,0,0,0,11.42,2.57l21.11-12.66a22.11,22.11,0,0,0-4.4-39.93l-36.37-12.12a29.57,29.57,0,0,1-11.51-7.12L152,353.22a29.22,29.22,0,0,1-8.63-20.83V319a8.47,8.47,0,0,0-3.78-7.06l-7.2-4.8a46,46,0,0,1-10.4-67l21.77-27.2a51.76,51.76,0,0,1,83.5,3.61l3.08,4.63a8.48,8.48,0,0,0,7.06,3.77H253a8.51,8.51,0,0,0,4.71-1.42l11.94-8a69.68,69.68,0,0,1,66.78-5.42l-8.66,19.1A48.51,48.51,0,0,0,281.29,233l-12,8A29.36,29.36,0,0,1,253,245.88H237.44a29.36,29.36,0,0,1-24.5-13.11l-3.09-4.63A30.81,30.81,0,0,0,160.17,226l-21.76,27.2a25,25,0,0,0,5.65,36.45l7.2,4.8A29.4,29.4,0,0,1,164.38,319v13.44a8.46,8.46,0,0,0,2.48,6l33.22,33.21a8.43,8.43,0,0,0,3.32,2l36.37,12.12a43.09,43.09,0,0,1,8.56,77.81l-21.1,12.66a29.43,29.43,0,0,1-39.67-8.91,10.16,10.16,0,0,0-13.72-3.09,31,31,0,0,0-10.61,42.45,32.27,32.27,0,0,1-8.33,42.52l-14,10.51a19.9,19.9,0,0,0,.89,32.48l3.17,2.1a43.62,43.62,0,0,1,6.66,67.14l-16.2,16.19a8.45,8.45,0,0,0-2.49,6v32.85a8.44,8.44,0,0,0,4.69,7.59,29.3,29.3,0,0,1,16.28,26.34v32.85a8.39,8.39,0,0,0,2.49,6l2,2a8.65,8.65,0,0,0,12,0l2-2a29.31,29.31,0,0,1,20.83-8.62H228.3a29.59,29.59,0,0,1,23.56,11.79l6.52,8.68a53.67,53.67,0,0,0,84.84,1.33l17-21.23a29.32,29.32,0,0,1,23-11.06h41a8.42,8.42,0,0,0,7.87-5.33L445,732.49a29.46,29.46,0,0,1,18-17l23-7.65a35.7,35.7,0,0,0,13.94-59.13l-13.58-13.59a61.13,61.13,0,0,1,0-86.42l42.53-42.53a8.39,8.39,0,0,0,2.49-6V488.32a64.19,64.19,0,0,1,64.18-64.18h11.22a8.49,8.49,0,0,0,8.48-8.49V411a29.21,29.21,0,0,1,8.63-20.82l20.34-20.35a29.25,29.25,0,0,1,20.84-8.64h29.76a8.47,8.47,0,0,0,8.23-6.42l3.48-13.93A46.8,46.8,0,0,1,726,313.25l3.56-2.38a25.88,25.88,0,0,0-2.79-44.69L725,265.3a25.69,25.69,0,0,0-27.08,2.46l-14.3,10.72A46.68,46.68,0,0,1,616.75,267l-4.59-6.89a8.47,8.47,0,0,0-7.06-3.77h-58a63.22,63.22,0,0,1-50.33-25.17,42.18,42.18,0,0,0-33.56-16.77H452.73a42,42,0,0,0-21,5.62l-10.49-18.16a63,63,0,0,1,31.46-8.43h10.48a63.2,63.2,0,0,1,50.33,25.16A42.16,42.16,0,0,0,547.1,235.4h58a29.4,29.4,0,0,1,24.51,13.12l4.59,6.87A25.73,25.73,0,0,0,671,261.71L685.36,251a46.61,46.61,0,0,1,49.07-4.43l1.75.89a46.85,46.85,0,0,1,5,80.88l-3.56,2.38A25.81,25.81,0,0,0,726.87,346l-3.48,13.93a29.43,29.43,0,0,1-28.59,22.3H665.06a8.43,8.43,0,0,0-6,2.49L638.72,405a8.39,8.39,0,0,0-2.5,6v4.62a29.48,29.48,0,0,1-29.45,29.46H595.55a43.21,43.21,0,0,0-43.21,43.21v11.84A29.23,29.23,0,0,1,543.71,521l-42.53,42.53a40.17,40.17,0,0,0,0,56.78l13.58,13.59a56.65,56.65,0,0,1-22.15,93.83l-23,7.65a8.52,8.52,0,0,0-5.19,4.91l-12.93,32.34a29.32,29.32,0,0,1-27.35,18.52h-41a8.43,8.43,0,0,0-6.63,3.18l-17,21.24A74.34,74.34,0,0,1,301.31,843.55Z"/><rect class="cls-1" x="646.71" y="707.24" width="20.97" height="20.97"/><rect class="cls-1" x="699.14" y="644.33" width="20.97" height="20.97"/><path class="cls-1" d="M625.74,690.62a25.18,25.18,0,0,1-17.91-7.42l-57.67-57.67a32.72,32.72,0,1,1,46.28-46.28l5.24,5.24c2.23,2.21,3.94,2.21,6.14,0,9.56-9.56,26.24-9.56,35.81,0L654.11,595a25.34,25.34,0,0,1,0,35.8,4.35,4.35,0,0,0,0,6.15,25.35,25.35,0,0,1,0,35.79L643.63,683.2A25.14,25.14,0,0,1,625.74,690.62Zm-52.43-100A11.75,11.75,0,0,0,565,610.7l57.67,57.67c2.22,2.22,3.93,2.22,6.13,0l10.48-10.48a4.36,4.36,0,0,0,0-6.15,25.37,25.37,0,0,1,0-35.79,4.35,4.35,0,0,0,0-6.15L628.8,599.32c-2.22-2.22-3.93-2.22-6.13,0-9.57,9.56-26.25,9.56-35.81,0l-5.25-5.25A11.67,11.67,0,0,0,573.31,590.64Z"/><path class="cls-1" d="M718.31,550a56.41,56.41,0,0,1-40.15-16.63A14.9,14.9,0,0,0,667.68,529h-1.84a10.38,10.38,0,0,0-7.35,3,31.49,31.49,0,1,1-41.94-46.86l24.37-19.49a46,46,0,0,1,64.51,7,17,17,0,0,0,11.32-2.35A29.93,29.93,0,0,1,762.05,496v10.23A43.79,43.79,0,0,1,718.31,550ZM665.84,508h1.84A35.54,35.54,0,0,1,693,518.5,35.53,35.53,0,0,0,718.31,529a22.79,22.79,0,0,0,22.77-22.76V496a9,9,0,0,0-13.55-7.68,37.64,37.64,0,0,1-31.79,3.47l-3.32-1.17-1.95-2.92A25,25,0,0,0,654,482.05l-24.37,19.49a10.53,10.53,0,0,0-.87,15.66,10.55,10.55,0,0,0,14.89,0A31.16,31.16,0,0,1,665.84,508Z"/><path class="cls-2" d="M412.85,545.37a57.24,57.24,0,0,1-48.16-26.13L248.42,340.35a195.62,195.62,0,0,1-31.68-106.87v-6.79c0-108.13,88-196.11,196.11-196.11S609,118.56,609,226.69v6.79a195.62,195.62,0,0,1-31.68,106.88L461,519.25A57.25,57.25,0,0,1,412.85,545.37Z"/><path class="cls-1" d="M412.85,349.26A122.57,122.57,0,1,1,535.41,226.69,122.7,122.7,0,0,1,412.85,349.26Zm0-220.62a98.06,98.06,0,1,0,98,98.05A98.17,98.17,0,0,0,412.85,128.64Z"/></svg>