<?xml version="1.0" encoding="utf-8"?>
<!-- Generator: Adobe Illustrator 24.1.3, SVG Export Plug-In . SVG Version: 6.00 Build 0)  -->
<svg version="1.1" id="Layer_1" xmlns="http://www.w3.org/2000/svg" xmlns:xlink="http://www.w3.org/1999/xlink" x="0px" y="0px"
	 viewBox="0 0 1440 810" style="enable-background:new 0 0 1440 810;" xml:space="preserve">
<style type="text/css">
	.st0{fill:#242424;}
</style>
<g id="Layer_1_1_">
	<path class="st0" d="M94,176.1c12.5-12.5,22.3-27.1,29.2-43.3c7.1-16.8,10.7-34.6,10.7-53s-3.6-36.2-10.7-53
		C119.1,17.3,114,8.3,108,0H35.3C65.2,14.2,86,44.6,86,79.9c0,47.9-38.4,87-86,88.3V216c17.5-0.3,34.6-3.9,50.7-10.7
		C66.9,198.5,81.5,188.6,94,176.1z"/>
</g>
<g id="Layer_2_1_">
	<path class="st0" d="M385.8,239.3c13.4,31.7,32.6,60.2,57,84.6s52.9,43.6,84.6,57c32.8,13.9,67.7,20.9,103.6,20.9
		s70.8-7,103.6-20.9c31.7-13.4,60.2-32.6,84.6-57c24.4-24.4,43.6-52.9,57-84.6c13.9-32.8,20.9-67.7,20.9-103.6h-47.9
		c0,29.5-5.8,58.1-17.1,85c-11,26-26.7,49.3-46.8,69.4s-43.4,35.8-69.4,46.8c-26.9,11.4-55.5,17.1-85,17.1s-58.1-5.8-85-17.1
		c-26-11-49.3-26.7-69.4-46.8c-20.1-20.1-35.8-43.4-46.8-69.4c-11.4-26.9-17.1-55.5-17.1-85v-242.3h-47.9v242.2
		C364.9,171.6,371.9,206.4,385.8,239.3z"/>
</g>
<g id="Layer_3">
	<rect x="541.2" y="-39.4" class="st0" width="47.9" height="141.3"/>
</g>
<g id="Layer_4">
	<path class="st0" d="M1228.9,93.7c-40.5,17.1-76.8,41.6-108,72.8s-55.7,67.5-72.8,108c-17.7,41.9-26.7,86.4-26.7,132.3h47.9
		c0-39.4,7.7-77.6,22.9-113.6c14.7-34.8,35.8-66,62.6-92.8c26.8-26.8,58-47.9,92.8-62.6c36-15.2,74.2-22.9,113.6-22.9
		c26.9,0,53.3,3.6,78.8,10.7V76.1c-25.6-6.1-52-9.2-78.8-9.2C1315.3,67,1270.8,76,1228.9,93.7z"/>
</g>
<g id="Layer_5">
	<rect x="1259.4" y="412.6" class="st0" width="141.3" height="47.9"/>
</g>
<g id="Layer_6">
	<path class="st0" d="M1357.2,597.8c-25,0-49.2-4.9-72.1-14.5c-22-9.3-41.8-22.7-58.9-39.7c-17-17-30.4-36.8-39.7-58.9
		c-9.6-22.8-14.5-47.1-14.5-72.1h-47.9c0,31.4,6.2,62,18.3,90.7c11.7,27.7,28.5,52.7,49.9,74.1c21.4,21.4,46.3,38.2,74.1,49.9
		c28.7,12.2,59.3,18.3,90.7,18.3c28.6,0,56.4-5.1,82.8-15.2v-52.2c-3.1,1.6-6.3,3.1-9.5,4.4C1407.3,592.7,1382.7,597.8,1357.2,597.8
		z"/>
</g>
<g id="Layer_9">
	<path class="st0" d="M153.4,560.7c18.4,18.4,28.5,42.8,28.5,68.7c0,26-10.1,50.4-28.5,68.7s-42.8,28.5-68.7,28.5v47.9
		c19.6,0,38.6-3.8,56.5-11.4c17.3-7.3,32.8-17.8,46.1-31.1c13.3-13.3,23.8-28.8,31.1-46.1c7.6-17.9,11.4-36.9,11.4-56.5
		s-3.8-38.6-11.4-56.5c-7.3-17.3-17.8-32.8-31.1-46.1s-28.8-23.8-46.1-31.1c-17.9-7.6-36.9-11.4-56.5-11.4H0v47.9h84.7
		C110.7,532.2,135.1,542.3,153.4,560.7z"/>
</g>
<g id="Layer_10">
	<rect y="343" class="st0" width="141.3" height="47.9"/>
</g>
</svg>
