<svg id="Layer_1" data-name="Layer 1" xmlns="http://www.w3.org/2000/svg" viewBox="0 0 956.27 331.34"><defs><style>.cls-1{fill:#fff;}</style></defs><path class="cls-1" d="M753.76,128.09a25,25,0,1,0-25-25A25.06,25.06,0,0,0,753.76,128.09Z"/><path class="cls-1" d="M905.75,276.81V247.07c0-13-7.45-10.95-23.09-10.95s-19.31-3.13-24-8.35-4.17-20.35-4.17-20.35h40.18c13,0,11-7.82,11-12.52V161c0-10.46-10.45-9.39-15.14-9.39H854.67V46.34a8.9,8.9,0,0,0-8.9-8.87h-34.6a8.87,8.87,0,0,0-8.87,8.87V151.58H758.45c-32.34,0-31.31,23.48-31.31,23.48v44.5c0,15.81-13,16-13,16h-9.54a73.07,73.07,0,0,0-71.08-89.49H612.9V46.34A8.89,8.89,0,0,0,604,37.47h-34.6a8.88,8.88,0,0,0-8.88,8.87V154.72L493,185.39V47.23a8.87,8.87,0,0,0-8.87-8.88H450.5A8.61,8.61,0,0,0,442,47.23V230.8s.64,18-9.23,18c-12.1,0-10.37-18-10.37-18V201.53s4.61-69.19-61.71-69.19c-64.58,0-62.85,55.92-62.85,69.19v27.11s.78,13.26-8.6,13.26c-9.79,0-9.28-12.68-9.28-12.68v-45c0-30.27-15.57-32.67-35.17-32.67H199.08V47.23a8.87,8.87,0,0,0-8.87-8.88H155.59c-4.9,0-8.4,4-8.4,8.88v98.35h-21c-40.28,0-72.94,35.07-72.94,75.33a72.94,72.94,0,1,0,145.88,0V199.34h13.38S226,202.12,226,215.09s-.29,78.78,62,78.78c65.77,0,57.63-70.7,57.63-80.22V195.78s-.2-11.53,12-11.53c13.69,0,12.25,10.94,12.25,10.94V250s-.16,40.79,32.14,40.79h64s19.19,2.44,26.11-21.2c27.1,24.29,56.73,21.34,56.73,21.34h75.9a94.06,94.06,0,0,1-10.35-2.47,75.26,75.26,0,0,0,19.06,2.45H752.2c27.64,0,27.13-19.31,27.13-35V207.42h22.45c0,88.19,72.52,83.48,72.52,83.48h19.83C908.22,290.9,905.75,282,905.75,276.81ZM147.24,221.88a20.34,20.34,0,0,1-40.68,0c0-11.24,9.1-22.54,20.35-22.54h20.33Zm378.9,3.88,34.39-16.6V219a72.22,72.22,0,0,0,2.71,19.61C527.28,241.28,526.14,225.76,526.14,225.76Zm106.31,14.15a20.36,20.36,0,0,1-20.36-20.35V199.23h20.36a20.34,20.34,0,0,1,0,40.68Z"/><path class="cls-1" d="M251.56,129.46a25.95,25.95,0,1,0-26-25.95A26,26,0,0,0,251.56,129.46Z"/></svg>