<svg id="Layer_1" data-name="Layer 1" xmlns="http://www.w3.org/2000/svg" viewBox="0 0 956.27 331.34"><defs><style>.cls-1{fill:#95bc4f;}.cls-2{fill:#618c42;}.cls-3{fill:#fff;}.cls-4{fill:#fff;}</style></defs><path d="M567.85,242.56l12.68-68.17c1.59-8.32,2.78-15.62,3.57-22.46h5.42l-2,13.68h.27c5.68-8.55,13.6-14.59,22.06-14.59,12,0,16.51,9.94,16.51,20.38,0,21.4-14.66,46-34.87,46-6.21,0-10.31-2.21-12.68-2.21h-.27l-5,27.36ZM579.74,208c2.91,2.25,7.13,3.57,12.29,3.57,16.77,0,28.39-23.78,28.39-40,0-7.53-2.9-16-12.28-16-9,0-20.74,11.5-24.3,30.65Z"/><path d="M669.43,216.91c-.13-5.13.66-10.26,1.59-17.1h-.27c-7.26,13.68-15.32,17.58-23.64,17.58-9.65,0-15.46-8.32-15.46-19.68,0-21.66,15.46-47,40-47,4.49,0,9.51.56,12.81,1.75l-6.74,34.84c-2.24,11.89-3,22.72-2.77,29.56Zm8.45-60.4a22.75,22.75,0,0,0-7.66-.93c-18.23,0-32.49,20.35-32.62,40.29-.14,8.32,2.24,15.72,10.83,15.72,10.3,0,21.93-15.45,25-31.83Z"/><path d="M688.58,216.91l8.06-43.45a179.06,179.06,0,0,0,3-21.53h5.15c-.39,5.13-.92,8.55-1.72,15.39h.27c3.83-8.55,10.17-16,18.09-16,.8,0,1.72-.26,2.38-.26L722.66,157a8.58,8.58,0,0,0-2.11-.23c-8.32,0-17.57,13.31-20.21,27.18l-6.08,33Z"/><path d="M749.87,138l-2.77,13.89H762l-1,5.13H746l-7,37.63a58.22,58.22,0,0,0-1.32,10.9c0,3.69,1.72,5.9,5.68,5.9A14.4,14.4,0,0,0,748,211l.4,4.61a21.88,21.88,0,0,1-6.21.92c-7.53,0-10.43-5-10.43-10.3a50.87,50.87,0,0,1,1.45-11.48l7.13-37.64h-9.11l.92-5.13h9.25l2.11-11.37Z"/><path d="M761.23,216.91l8.46-45.57c1.45-7.53,2.24-14.28,2.77-19.41h5.41L776,165.61h.26c5.55-8.55,13.47-14.66,22.19-14.66,6.21,0,14.13,3.77,14.13,15.79a59.34,59.34,0,0,1-1.18,10.49l-7.27,39.68h-5.68l7.4-39.78a55.45,55.45,0,0,0,.92-9.65c0-6.6-2.64-11.56-10.43-11.56-8.46,0-20.48,11.27-23.25,26.6l-6.21,34.39Z"/><path d="M858.45,211.72a31.46,31.46,0,0,1-17.3,4.76c-14.8,0-19.95-11.63-19.95-23.78,0-18.23,12.81-42.14,30.91-42.14,10.43,0,14.79,6.74,14.79,13.87,0,16.12-18.49,20.61-39.23,20.48-.66,2.9-.79,11.23.53,15.85,2.25,7.13,7.13,10.7,13.87,10.7a27.57,27.57,0,0,0,14.66-4.23Zm2.74-47.15c0-5.82-4.08-9-10-9-9.78,0-18.44,10.57-22.4,24.31,16.51.13,32.42-2.64,32.42-15.19Z"/><path d="M870.73,216.91l8.06-43.45a179.06,179.06,0,0,0,3-21.53H887c-.39,5.13-.92,8.55-1.72,15.39h.27c3.83-8.55,10.17-16,18.09-16,.8,0,1.72-.26,2.38-.26L904.81,157a8.58,8.58,0,0,0-2.11-.23c-8.32,0-17.57,13.31-20.21,27.18l-6.08,33Z"/><path d="M904,207.89a19.37,19.37,0,0,0,11.1,3.57c8.32,0,14-6,14-13.21,0-6.34-2.64-10.17-8.59-14-6.34-4.1-9.77-9.78-9.77-15.72,0-9.91,8-18,19.28-18,4.36,0,8.59,1.33,10.44,2.78l-2.12,4.89a18.06,18.06,0,0,0-9-2.65c-7.66,0-12.81,5.42-12.81,11.89,0,5.95,3.43,9.25,8.59,12.82,6.07,4.09,9.77,9.9,9.77,16.37,0,12.82-9.38,19.82-20.34,19.82-5.68,0-10.7-2.12-12.81-3.83Z"/><path class="cls-1" d="M67.17,142.46l-.37,0a3.21,3.21,0,0,1-2.71-2.93c0-1.38-.89-34,18.22-41.37,4.82-1.87,9.2-1.45,13,1.25,4.58,3.24,7.93,9.65,9.94,19.05A81.63,81.63,0,0,1,106.93,131a2.12,2.12,0,0,1-2.53,2.2,3.2,3.2,0,0,1-2.72-2.91c-.23-5.91-2.27-22.25-8.9-26.93-2.12-1.5-4.69-1.64-7.85-.41-16.38,6.35-15.6,36.94-15.59,37.25A2.09,2.09,0,0,1,67.17,142.46Z"/><path class="cls-1" d="M108,110.4l-73.9,22.88s-3.17.9-3.91,1.8-1,3.62-1,3.62L17.76,226.81l85.76,16.06,6.6-132.54A5.37,5.37,0,0,0,108,110.4Z"/><path class="cls-2" d="M133.57,121.79a1.62,1.62,0,0,0-.51-.92,2.15,2.15,0,0,0-.81-.3l-12.1-.9-8.91-8.85a2.62,2.62,0,0,0-1.12-.49l-6.6,132.55L150,232.82Z"/><path class="cls-3" d="M77.45,184a28.88,28.88,0,0,0-4.46-4.7,44.12,44.12,0,0,0-4.91-3.59,31.61,31.61,0,0,1-3-2.12,15.3,15.3,0,0,1-2.11-2,7.45,7.45,0,0,1-1.22-2,5.35,5.35,0,0,1-.34-2.13,7,7,0,0,1,.64-2.69,6.24,6.24,0,0,1,1.6-2.08,8,8,0,0,1,2.48-1.39,11.86,11.86,0,0,1,3.27-.64,24.29,24.29,0,0,1,7.27.7,24.82,24.82,0,0,1,3,.92c.91.34,1.71.69,2.39,1l5.72-17a16,16,0,0,0-3.07-1.17,27,27,0,0,0-4-.8A36.3,36.3,0,0,0,76,144a43.38,43.38,0,0,0-5.2.35,33.54,33.54,0,0,0-10.51,3.13,27.13,27.13,0,0,0-7.73,5.75A25.46,25.46,0,0,0,47.64,161a28.78,28.78,0,0,0-2,9.59,19.4,19.4,0,0,0,.58,5.77,18.4,18.4,0,0,0,2,4.93,22.85,22.85,0,0,0,3.25,4.24,33.79,33.79,0,0,0,4.15,3.64,32.33,32.33,0,0,1,3.11,2.54,14.54,14.54,0,0,1,2.07,2.4,8.24,8.24,0,0,1,1.12,2.4,8,8,0,0,1,.27,2.56,6.63,6.63,0,0,1-.57,2.47,5.21,5.21,0,0,1-1.46,1.89,5.43,5.43,0,0,1-2.28,1.08,8.25,8.25,0,0,1-3,.07,18.55,18.55,0,0,1-3.84-1,28.17,28.17,0,0,1-3.59-1.7c-1.12-.63-2.16-1.3-3.09-2s-1.73-1.28-2.39-1.84l-3.92,13a16.22,16.22,0,0,0,2.45,2.46,25.49,25.49,0,0,0,3.37,2.32,32.15,32.15,0,0,0,4.16,2,35.46,35.46,0,0,0,4.77,1.54l.09,0,.08,0h.09l.08,0a29.19,29.19,0,0,0,10.2.55,20.77,20.77,0,0,0,9-3.31,19.67,19.67,0,0,0,6.52-7.5,28.09,28.09,0,0,0,2.82-11.62,20.89,20.89,0,0,0-1-7.53A21.54,21.54,0,0,0,77.45,184Z"/><path class="cls-1" d="M49.16,138l-.37,0A2.58,2.58,0,0,1,46.6,135c.19-1.38,5.1-34,25.51-41.38,5.15-1.87,9.46-1.45,12.8,1.25,4,3.25,6.23,9.66,6.58,19.05a80.71,80.71,0,0,1-.56,12.61,2.59,2.59,0,0,1-5.13-.71c.81-5.9,1.65-22.24-4.15-26.93-1.85-1.5-4.4-1.63-7.77-.41-17.5,6.36-22.12,37-22.16,37.26A2.6,2.6,0,0,1,49.16,138Z"/><path class="cls-4" d="M204.15,178.19c-4.64-2.51-7-4.63-7-7.54,0-3.71,3.31-6.09,8.47-6.09A27.43,27.43,0,0,1,217,167.07l4.24-13c-2.92-1.73-8.35-3-15.36-3-16,0-27,9.14-27,22,0,7.28,5.16,12.84,12,16.81,5.56,3.18,7.54,5.43,7.54,8.74s-2.78,6.22-7.94,6.22c-5.69.14-11.65-2.25-15-4l-4.5,13c3.44,2.38,10.46,4.37,18,4.5,16.42.13,28.2-8.08,28.2-22.64C217.25,187.86,211.3,182.3,204.15,178.19Z"/><path class="cls-4" d="M269.55,150.92c-8.08,0-14.43,3.84-19.33,9.66l-.26-.13,7-36.67H238.7L221,217.12h18.27l6.09-31.91c2.39-12.05,8.61-19.46,14.43-19.46,4.11,0,5.7,2.78,5.7,6.75a41.84,41.84,0,0,1-.8,8.08l-6.88,36.54H276l7.15-37.74a68.48,68.48,0,0,0,1.32-11.91C284.51,157.14,279.08,150.92,269.55,150.92Z"/><path class="cls-4" d="M325.82,150.92c-22,0-36.54,19.86-36.54,42,0,14.17,8.74,25.55,25.16,25.55,21.58,0,36.14-19.33,36.14-42C350.58,163.36,342.9,150.92,325.82,150.92Zm-9,53.49c-6.22,0-8.87-5.3-8.87-11.92C308,182,313.38,165,323.31,165c6.48,0,8.6,5.56,8.6,11C331.91,187.2,326.48,204.41,316.82,204.41Z"/><path class="cls-4" d="M397.32,150.92c-7.28,0-14.43,4-19.33,10.86h-.27l1.06-9.8H362.63c-.79,6.62-2.25,16.68-3.71,24.23l-12.71,66.86h18.27l5-27h.4c2.12,1.32,6.22,2.38,10.73,2.38,21.44,0,35.48-22,35.48-44.22C416.12,161.91,410.69,150.92,397.32,150.92Zm-17.48,53.75a11.33,11.33,0,0,1-7.55-2.65l3-17.08c2.12-11.38,8.08-18.93,14.43-18.93,5.56,0,7.28,5.17,7.28,10.06C397.05,187.86,390,204.67,379.84,204.67Z"/><path class="cls-4" d="M442.2,124.7a10.44,10.44,0,0,0-10.46,10.6c0,5.42,3.45,9.13,8.61,9.13h.26c5.7,0,10.6-3.84,10.73-10.59C451.34,128.54,447.76,124.7,442.2,124.7Z"/><polygon class="cls-4" points="416.65 217.12 434.92 217.12 447.37 152.38 428.96 152.38 416.65 217.12"/><path class="cls-4" d="M493.84,152.24H481.13l.66-3c1.06-6.23,4.77-11.79,10.86-11.79a17.85,17.85,0,0,1,5.82.93l3.58-14.3a25.59,25.59,0,0,0-9.93-1.59c-6.49,0-13,1.86-17.88,6.09-6.22,5.3-9.13,13-10.59,20.66l-.53,3h-8.47L452,166h8.47l-9.66,51.11h18.27L478.74,166h12.58Z"/><path class="cls-4" d="M537.79,152.37l-11.12,29c-2.65,7-4,11.12-5.43,15.49H521c-.27-4.24-.8-8.87-1.59-15.36l-2.91-29.13h-19.2l11,59.45a3.91,3.91,0,0,1-.4,3.05,31.35,31.35,0,0,1-9.93,11A39.73,39.73,0,0,1,487.62,231l5,15.49a41.72,41.72,0,0,0,17.87-9.93c8.34-7.81,16-19.86,24-36.28l22.38-47.93Z"/></svg>