<svg id="Layer_1" data-name="Layer 1" xmlns="http://www.w3.org/2000/svg" viewBox="0 0 900 900"><defs><style>.cls-1{fill:#fff;}.cls-2{fill:#464646;}</style></defs><polygon class="cls-1" points="739.78 832.45 675.1 832.45 615.74 796.83 579.81 808.8 347.56 705.59 347.56 628.69 187.63 445.9 175.97 457.56 175.97 485.54 274.02 632.62 274.02 722.13 217.42 722.13 188.23 663.74 188.23 645.91 143.88 634.82 114.69 591.02 114.69 554.25 90.17 517.48 90.17 443.12 65.66 394.09 65.66 305.4 142.37 305.4 252.69 366.69 363.05 366.69 363.05 391.2 246.34 391.2 136.03 329.92 90.17 329.92 90.17 388.31 114.69 437.34 114.69 510.06 139.2 546.83 139.2 583.6 159.03 613.34 212.74 626.76 212.74 657.96 232.57 697.62 249.51 697.62 249.51 640.05 151.46 492.97 151.46 447.41 188.83 410.04 372.08 619.47 372.08 689.65 581.08 782.55 618.68 770.01 681.89 807.93 715.27 807.93 715.27 798.57 703.01 774.05 703.01 722.13 776.55 722.13 776.55 706.99 801.07 657.96 801.07 599.57 793.88 599.57 732.6 660.85 592.7 660.85 592.7 587.31 635.17 587.31 678.5 522.31 678.5 501.51 623.16 501.51 558.22 411.12 578.16 396.87 635.78 477 703.01 477 703.01 529.74 648.28 611.82 617.21 611.82 617.21 636.34 722.45 636.34 783.74 575.05 825.58 575.05 825.58 663.74 801.07 712.77 801.07 746.65 727.52 746.65 727.52 768.27 739.78 792.78 739.78 832.45"/><path class="cls-2" d="M470.13,545.37A57.22,57.22,0,0,1,422,519.24L305.71,340.35A195.63,195.63,0,0,1,274,233.48v-6.79c0-108.13,88-196.11,196.11-196.11s196.11,88,196.11,196.11v6.79a195.71,195.71,0,0,1-31.68,106.88L518.29,519.25A57.25,57.25,0,0,1,470.13,545.37Z"/><path class="cls-1" d="M470.13,349.26A122.57,122.57,0,1,1,592.7,226.69,122.71,122.71,0,0,1,470.13,349.26Zm0-220.62a98.06,98.06,0,1,0,98.06,98.05A98.17,98.17,0,0,0,470.13,128.64Z"/><path class="cls-1" d="M60.35,556c0-25,35-45.25,78.22-45.25S216.78,531,216.78,556Z"/><path class="cls-1" d="M138.57,510.75,78.69,553.81H198.44Z"/></svg>